<svg width="14" height="16" viewBox="0 0 14 16" fill="none" xmlns="http://www.w3.org/2000/svg">
<g id="Icons">
<g id="icon">
<path d="M11.846 2.847H9.307V2.385C9.30713 2.20317 9.27143 2.02309 9.20194 1.85506C9.13244 1.68703 9.03052 1.53434 8.90199 1.40572C8.77346 1.27709 8.62085 1.17506 8.45287 1.10545C8.28489 1.03583 8.10483 1 7.923 1H6.076C5.70894 1 5.35691 1.14581 5.09736 1.40536C4.83781 1.66491 4.692 2.01694 4.692 2.384V2.846H2.153C1.84711 2.84626 1.55385 2.96796 1.33765 3.18435C1.12144 3.40074 1 3.69411 1 4V4.923C0.999869 4.98358 1.0117 5.04358 1.03482 5.09957C1.05794 5.15556 1.0919 5.20644 1.13473 5.24927C1.17756 5.2921 1.22844 5.32606 1.28443 5.34918C1.34042 5.3723 1.40042 5.38413 1.461 5.384H12.538C12.5986 5.38413 12.6587 5.3723 12.7147 5.3492C12.7708 5.32609 12.8217 5.29215 12.8646 5.24933C12.9075 5.20651 12.9416 5.15564 12.9648 5.09965C12.988 5.04365 13 4.98362 13 4.923V4C12.9997 3.69411 12.878 3.40085 12.6616 3.18464C12.4453 2.96844 12.1519 2.847 11.846 2.847ZM5.615 2.385C5.61526 2.26282 5.66392 2.14571 5.75032 2.05932C5.83671 1.97292 5.95382 1.92426 6.076 1.924H7.923C8.04518 1.92426 8.16229 1.97292 8.24869 2.05932C8.33508 2.14571 8.38374 2.26282 8.384 2.385V2.847H5.615V2.385Z" fill="white"/>
<path d="M1.87855 6.30469C1.85903 6.30466 1.83972 6.30861 1.82177 6.31628C1.80383 6.32395 1.78763 6.33519 1.77416 6.34931C1.7607 6.36343 1.75024 6.38014 1.74343 6.39843C1.73662 6.41672 1.7336 6.4362 1.73455 6.45569L2.11554 14.4467C2.13202 14.8023 2.28497 15.1378 2.54257 15.3835C2.80016 15.6292 3.14257 15.7661 3.49855 15.7657H10.5075C10.8632 15.7656 11.2051 15.6284 11.4622 15.3828C11.7194 15.1372 11.8721 14.8019 11.8885 14.4467L12.2695 6.45569C12.2705 6.4362 12.2675 6.41672 12.2607 6.39843C12.2538 6.38014 12.2434 6.36343 12.2299 6.34931C12.2165 6.33519 12.2003 6.32395 12.1823 6.31628C12.1644 6.30861 12.1451 6.30466 12.1255 6.30469H1.87855ZM8.84955 7.45769C8.85507 7.33901 8.90611 7.22702 8.99205 7.14498C9.07799 7.06295 9.19224 7.01718 9.31105 7.01718C9.42986 7.01718 9.5441 7.06295 9.63004 7.14498C9.71598 7.22702 9.76702 7.33901 9.77255 7.45769V13.4577C9.77545 13.5201 9.76567 13.5825 9.74379 13.641C9.72191 13.6995 9.68838 13.753 9.64524 13.7982C9.6021 13.8434 9.55024 13.8793 9.4928 13.9039C9.43536 13.9285 9.37353 13.9412 9.31105 13.9412C9.24857 13.9412 9.18673 13.9285 9.12929 13.9039C9.07185 13.8793 9.01999 13.8434 8.97685 13.7982C8.93371 13.753 8.90019 13.6995 8.8783 13.641C8.85642 13.5825 8.84664 13.5201 8.84955 13.4577V7.45769ZM6.54155 7.45769C6.54155 7.33529 6.59017 7.21791 6.67672 7.13136C6.76326 7.04481 6.88065 6.99619 7.00304 6.99619C7.12544 6.99619 7.24283 7.04481 7.32937 7.13136C7.41592 7.21791 7.46454 7.33529 7.46454 7.45769V13.4577C7.46454 13.5801 7.41592 13.6975 7.32937 13.784C7.24283 13.8706 7.12544 13.9192 7.00304 13.9192C6.88065 13.9192 6.76326 13.8706 6.67672 13.784C6.59017 13.6975 6.54155 13.5801 6.54155 13.4577V7.45769ZM4.23354 7.45769C4.23907 7.33901 4.29011 7.22702 4.37605 7.14498C4.46199 7.06295 4.57624 7.01718 4.69504 7.01718C4.81385 7.01718 4.9281 7.06295 5.01404 7.14498C5.09998 7.22702 5.15102 7.33901 5.15655 7.45769V13.4577C5.15945 13.5201 5.14967 13.5825 5.12779 13.641C5.1059 13.6995 5.07238 13.753 5.02924 13.7982C4.9861 13.8434 4.93424 13.8793 4.8768 13.9039C4.81936 13.9285 4.75752 13.9412 4.69504 13.9412C4.63257 13.9412 4.57073 13.9285 4.51329 13.9039C4.45585 13.8793 4.40399 13.8434 4.36085 13.7982C4.31771 13.753 4.28419 13.6995 4.2623 13.641C4.24042 13.5825 4.23064 13.5201 4.23354 13.4577V7.45769Z" fill="white"/>
</g>
</g>
</svg>
