<svg width="17" height="17" viewBox="0 0 17 17" fill="none" xmlns="http://www.w3.org/2000/svg">
<g id="Icons">
<path id="Vector" d="M1.99251 15.1507C1.99768 15.1247 2.00183 15.0986 2.00494 15.0724L2.37048 11.9872C2.43281 11.6774 2.57485 11.384 2.78735 11.1344L10.9695 2.78956C10.9697 2.78938 10.9698 2.7892 10.97 2.78902C11.62 2.12758 12.193 1.78118 12.7294 1.71517C13.2187 1.65495 13.9077 1.8028 14.8701 2.67547C15.8435 3.56271 16.0119 4.20031 15.9809 4.62814C15.9457 5.11321 15.6357 5.67047 14.9795 6.33844L14.9788 6.33916L6.7895 14.6913C6.54824 14.9138 6.24545 15.0726 5.91166 15.1469L2.71833 15.6725C2.6942 15.6764 2.67021 15.6813 2.64643 15.687C2.5552 15.709 2.4592 15.7085 2.36834 15.6855C2.27756 15.6626 2.19783 15.6188 2.13525 15.5617L1.46404 16.2977L2.13524 15.5617C2.07287 15.5049 2.02984 15.437 2.00624 15.3664C1.98272 15.2959 1.97823 15.2221 1.99251 15.1507Z" stroke="white" stroke-width="2" stroke-linecap="round" stroke-linejoin="round"/>
</g>
</svg>
