<svg width="32" height="44" viewBox="0 0 32 44" fill="none" xmlns="http://www.w3.org/2000/svg">
<g id="icon-pdf">
<path id="&#208;&#154;&#208;&#190;&#208;&#189;&#209;&#130;&#209;&#131;&#209;&#128; 235" d="M31.996 12.052V41.164C31.9952 41.5372 31.9209 41.9066 31.7774 42.2511C31.6338 42.5956 31.4238 42.9085 31.1594 43.1718C30.8949 43.4352 30.5812 43.6439 30.236 43.786C29.8909 43.9281 29.5212 44.0008 29.148 44H2.848C2.47478 44.0008 2.10507 43.9281 1.75996 43.786C1.41485 43.6439 1.10111 43.4352 0.836647 43.1718C0.572186 42.9085 0.362179 42.5956 0.218628 42.2511C0.0750764 41.9066 0.0007871 41.5372 0 41.164V2.836C0.00158965 2.08295 0.301989 1.36131 0.835228 0.829574C1.36847 0.297835 2.09095 -0.000530915 2.844 7.09211e-07H19.895L31.996 12.052Z" fill="#D3374E"/>
<path id="&#208;&#159;&#209;&#128;&#209;&#143;&#208;&#188;&#208;&#190;&#209;&#131;&#208;&#179;&#208;&#190;&#208;&#187;&#209;&#140;&#208;&#189;&#208;&#184;&#208;&#186; 98" d="M24.1755 22.0938H7.8125V23.9047H24.1755V22.0938Z" fill="white"/>
<path id="&#208;&#159;&#209;&#128;&#209;&#143;&#208;&#188;&#208;&#190;&#209;&#131;&#208;&#179;&#208;&#190;&#208;&#187;&#209;&#140;&#208;&#189;&#208;&#184;&#208;&#186; 99" d="M24.1755 26.1328H7.8125V27.9438H24.1755V26.1328Z" fill="white"/>
<path id="&#208;&#159;&#209;&#128;&#209;&#143;&#208;&#188;&#208;&#190;&#209;&#131;&#208;&#179;&#208;&#190;&#208;&#187;&#209;&#140;&#208;&#189;&#208;&#184;&#208;&#186; 100" d="M24.1755 30.1797H7.8125V31.9907H24.1755V30.1797Z" fill="white"/>
<path id="&#208;&#159;&#209;&#128;&#209;&#143;&#208;&#188;&#208;&#190;&#209;&#131;&#208;&#179;&#208;&#190;&#208;&#187;&#209;&#140;&#208;&#189;&#208;&#184;&#208;&#186; 101" d="M19.4485 34.2266H7.8125V36.0376H19.4485V34.2266Z" fill="white"/>
<path id="&#208;&#154;&#208;&#190;&#208;&#189;&#209;&#130;&#209;&#131;&#209;&#128; 236" d="M21.5469 11.7887L31.9969 16.0757V12.0477L26.0719 10.3047L21.5469 11.7887Z" fill="#9B2139"/>
<path id="&#208;&#154;&#208;&#190;&#208;&#189;&#209;&#130;&#209;&#131;&#209;&#128; 237" d="M31.9936 12.052H22.7386C22.3654 12.0528 21.9957 11.9801 21.6506 11.838C21.3055 11.6959 20.9917 11.4872 20.7273 11.2238C20.4628 10.9605 20.2528 10.6476 20.1093 10.3031C19.9657 9.95862 19.8914 9.58922 19.8906 9.216V0L31.9936 12.052Z" fill="#F9ACAC"/>
</g>
</svg>
